HIERARCHY
ROOT simHips
{
  OFFSET -18.174 98.0468 -2.14481
  CHANNELS 6 Xposition Yposition Zposition Zrotation Xrotation Yrotation
  JOINT simSpine
  {
    OFFSET -0.000355721 21.3001 -0.016921
    CHANNELS 3 Zrotation Xrotation Yrotation
    JOINT simLeftArm
    {
      OFFSET 13.5181 21.3012 0
      CHANNELS 3 Zrotation Xrotation Yrotation
      JOINT simLeftForeArm
      {
        OFFSET 24.5783 0 0
        CHANNELS 3 Zrotation Xrotation Yrotation
        JOINT simLeftHand
        {
          OFFSET 24.5783 0 0
          CHANNELS 3 Zrotation Xrotation Yrotation
          End Site
          {
            OFFSET 7.32568 1.52588e-005 0.0169305
          }
        }
      }
    }
    JOINT simHead
    {
      OFFSET 0 27.4458 -0.00489235
      CHANNELS 3 Zrotation Xrotation Yrotation
      End Site
      {
        OFFSET 0 0 0
      }
    }
    JOINT simRightArm
    {
      OFFSET -13.5174 21.3012 0
      CHANNELS 3 Zrotation Xrotation Yrotation
      JOINT simRightForeArm
      {
        OFFSET -24.5783 0 0
        CHANNELS 3 Zrotation Xrotation Yrotation
        JOINT simRightHand
        {
          OFFSET -24.5783 0 0
          CHANNELS 3 Zrotation Xrotation Yrotation
          End Site
          {
            OFFSET -7.32568 1.52588e-005 0.0169305
          }
        }
      }
    }
  }
  JOINT simRightUpLeg
  {
    OFFSET -8.44614 -9.41038 0.835684
    CHANNELS 3 Zrotation Xrotation Yrotation
    JOINT simRightLeg
    {
      OFFSET 0 -40.9639 0
      CHANNELS 3 Zrotation Xrotation Yrotation
      JOINT simRightFoot
      {
        OFFSET 0 -40.9639 0
        CHANNELS 3 Zrotation Xrotation Yrotation
        End Site
        {
          OFFSET 0.50614 -9.67405 14.6709
        }
      }
    }
  }
  JOINT simLeftUpLeg
  {
    OFFSET 8.44614 -9.41038 0.835684
    CHANNELS 3 Zrotation Xrotation Yrotation
    JOINT simLeftLeg
    {
      OFFSET 0 -40.9639 0
      CHANNELS 3 Zrotation Xrotation Yrotation
      JOINT simLeftFoot
      {
        OFFSET 0 -40.9639 0
        CHANNELS 3 Zrotation Xrotation Yrotation
        End Site
        {
          OFFSET -0.50614 -9.67405 14.6709
        }
      }
    }
  }
}
MOTION
Frames:	14
Frame Time:	0.0333333
45.8581 97.9063 120.22 1.46214 -0.952676 8.44869 2.10743 5.50648 -0.00598766 -56.1206 35.716 -12.7464 -2.24181 1.30397 -15.5273 4.88496 0.46222 -17.0172 -6.88685 8.52114 4.09702 43.3002 15.0919 31.6424 3.14372 3.96874 25.4573 -11.5725 8.74084 17.3673 -0.23245 6.48097 -2.85078 0.118569 -0.286177 -1.18625 1.28834 -10.9163 -1.39286 3.1684 -8.14179 2.10514 -1.72493 24.0765 -0.805591 -0.581004 -12.8875 -1.76354 
45.6842 97.8581 120.378 1.50994 -1.12607 8.95243 2.52864 5.45211 -0.0685441 -56.5485 35.7679 -12.4465 -2.2729 1.22822 -15.6721 4.94813 0.468058 -17.0806 -6.99406 8.76792 3.82642 42.6833 14.9596 31.6794 3.06739 3.40456 26.9275 -11.8881 8.67086 17.9826 -0.124903 6.50838 -3.14615 0.199552 1.59165e-005 -1.32038 1.20583 -11.0651 -1.38615 3.06883 -7.67594 2.77758 -1.57812 23.5945 -0.444626 -0.447648 -13.1539 -1.2328 
45.5426 97.7937 120.597 1.54705 -1.26999 9.50895 2.83554 5.27462 -0.221395 -56.9742 35.7783 -12.012 -2.37416 1.09251 -15.8867 4.82909 0.383064 -17.1641 -6.97336 9.17227 3.62703 42.486 15.0322 31.4681 2.90991 3.11717 27.9657 -12.1171 8.66245 18.4841 -0.00304814 6.83142 -3.25098 0.236597 0.0969355 -1.48469 1.20135 -11.3821 -1.49194 2.97667 -6.9668 3.19342 -1.37605 22.6917 -0.299598 -0.392404 -13.4311 -1.05423 
45.4365 97.7345 120.887 1.60547 -1.36198 9.99712 2.95809 4.9607 -0.33743 -57.3792 35.7639 -11.4873 -2.49463 0.997016 -15.9253 4.75553 0.299418 -17.3004 -6.81285 9.68698 3.61672 42.7875 15.4297 30.971 2.88786 2.9683 28.4481 -12.391 8.74991 18.8549 0.0855785 7.24872 -3.16604 0.228592 5.11647e-006 -1.65974 1.28612 -11.6704 -1.65605 2.84575 -6.06873 2.98892 -1.07981 21.4972 -0.454662 -0.564415 -13.7646 -1.17745 
45.3511 97.69 121.157 1.61469 -1.40824 10.4826 2.95895 4.57237 -0.44615 -57.7221 35.7625 -10.9878 -2.53052 1.00677 -15.8024 4.71134 0.28489 -17.2477 -6.41955 10.0794 3.4633 43.6705 15.9601 30.1276 2.87609 2.98953 28.3123 -12.4891 8.76082 19.074 0.227131 7.84518 -3.12922 0.22002 -0.282405 -1.85319 1.2825 -11.9383 -1.8391 2.89759 -5.23816 2.7253 -0.92188 20.2731 -0.707165 -1.06606 -13.9937 -1.49621 
45.2894 97.6682 121.407 1.5922 -1.43475 10.8788 2.85821 4.19427 -0.505405 -57.96 35.6469 -10.542 -2.64887 0.979995 -15.4669 4.43467 0.151988 -17.119 -5.92519 10.2199 3.20131 45.0862 16.6254 28.9555 2.92967 3.08231 27.6098 -12.5894 8.79526 19.1143 0.408017 7.77834 -3.15326 0.170358 0.0371853 -2.03813 1.12827 -12.0424 -2.02156 3.0537 -4.55734 2.51351 -0.861405 19.2827 -0.930678 -1.57182 -14.1249 -1.85105 
45.2795 97.6641 121.627 1.576 -1.44789 11.2143 2.68392 3.87355 -0.549179 -58.0438 35.6761 -10.2507 -2.74591 0.982088 -15.0759 4.25763 0.0547226 -17.0337 -5.40734 10.0674 2.96647 46.8645 17.3599 27.5828 3.24942 3.15824 26.1946 -12.3627 8.65166 18.759 0.544637 7.8783 -3.25856 0.17632 0.0722301 -2.22579 0.898046 -11.9288 -2.17871 3.12399 -4.12136 2.31577 -0.795426 18.65 -1.08127 -1.88858 -14.1979 -2.01796 
45.2792 97.656 121.827 1.57392 -1.48805 11.4856 2.54111 3.62877 -0.538868 -58.1035 35.7976 -10.041 -2.75533 1.02914 -14.731 4.18461 0.0226274 -16.9305 -5.01483 9.84697 2.73746 48.7341 18.1904 26.0648 3.7357 3.29491 24.113 -11.9173 8.41554 18.1577 0.607191 8.13989 -3.42862 0.216026 -0.0185536 -2.34942 0.755984 -11.9009 -2.25155 3.11507 -3.61329 2.57889 -0.726261 17.8944 -1.10473 -1.654 -14.0315 -2.28327 
45.2968 97.6375 122.071 1.56676 -1.59191 11.7366 2.52082 3.52348 -0.503911 -58.1411 35.9268 -9.96295 -2.89325 0.974533 -14.4048 3.87911 -0.120025 -16.7593 -4.78207 9.71274 2.47566 50.5232 19.0771 24.5468 4.25066 3.6426 21.3995 -11.2412 8.16836 17.2898 0.710888 8.40057 -3.60169 0.204655 0.0565344 -2.4979 0.545461 -11.923 -2.36335 3.11921 -3.36989 2.52384 -0.701062 17.8802 -1.11053 -1.47583 -14.0795 -2.31845 
45.3403 97.6173 122.288 1.5318 -1.68529 11.9289 2.49567 3.46627 -0.434615 -58.0149 36.2505 -10.0457 -2.90009 1.03432 -14.1659 3.83761 -0.135051 -16.7334 -4.56032 9.69896 2.35754 52.2719 20.1395 23.0645 4.75904 4.08564 18.3972 -10.2882 7.8745 16.0975 0.865028 8.65681 -3.79924 0.170448 -0.0128323 -2.64749 0.229922 -11.8335 -2.46567 3.20544 -3.3907 2.37429 -0.766868 18.3364 -1.09149 -1.37905 -14.2738 -2.30205 
45.4039 97.5894 122.499 1.50765 -1.78356 12.0313 2.44976 3.45092 -0.339683 -57.8959 36.4689 -10.1292 -2.88386 1.10079 -13.9425 3.74966 -0.203491 -16.876 -4.33173 9.83868 2.32178 53.8962 21.3977 21.6129 5.02781 4.84944 15.4112 -9.39817 7.80695 14.9046 0.938742 8.75767 -4.06362 0.202862 0.263298 -2.78759 -0.110359 -11.869 -2.46872 3.23386 -3.26307 2.14509 -0.776849 18.5683 -1.09468 -1.40712 -14.4684 -2.22768 
45.4904 97.5825 122.715 1.52547 -1.87516 12.1211 2.38026 3.48884 -0.307971 -57.717 36.6368 -10.2881 -2.93938 1.14846 -13.7164 3.71239 -0.198559 -16.7635 -4.13257 10.0372 2.34802 55.3746 22.7488 20.1095 5.27457 5.57938 12.8833 -8.50456 7.75342 13.8805 0.916888 8.85377 -4.14829 0.262067 0.578941 -2.88584 -0.249862 -11.9773 -2.51399 3.17621 -3.02756 1.97615 -0.743146 18.6028 -1.10282 -1.49168 -14.6907 -2.18462 
45.5992 97.5921 122.943 1.55485 -1.9735 12.1893 2.37425 3.48023 -0.272279 -57.6337 36.7775 -10.3853 -3.07591 1.0934 -13.5792 3.68378 -0.237555 -16.7543 -4.05884 10.3128 2.46627 56.6674 24.161 18.3738 5.33167 6.38192 11.0937 -7.99617 7.92585 13.3976 0.830038 8.96119 -4.24839 0.350439 0.917206 -2.9628 -0.34844 -12.0389 -2.52363 3.08397 -2.67224 1.90567 -0.682494 18.4621 -1.11926 -1.47431 -14.7925 -2.17927 
45.7169 97.5987 123.158 1.60276 -2.0569 12.2369 2.38109 3.41523 -0.261158 -57.6505 36.9673 -10.3797 -3.02379 1.17282 -13.5673 3.7405 -0.21138 -16.881 -4.08006 10.6011 2.59374 57.7604 25.494 16.5171 5.25901 7.12824 10.1318 -7.81006 8.20195 13.422 0.733532 9.0653 -4.19851 0.400666 1.19786 -3.02826 -0.415939 -12.0811 -2.6163 3.01291 -2.33786 1.97801 -0.67186 18.3033 -1.13288 -1.46989 -14.8515 -2.28995 
